<?xml version="1.0" standalone="no"?>
<!DOCTYPE svg PUBLIC "-//W3C//DTD SVG 20010904//EN"
 "http://www.w3.org/TR/2001/REC-SVG-20010904/DTD/svg10.dtd">
<svg version="1.0" xmlns="http://www.w3.org/2000/svg"
 width="915.000000pt" height="795.000000pt" viewBox="0 0 915.000000 795.000000"
 preserveAspectRatio="xMidYMid meet">

<g transform="translate(0.000000,795.000000) scale(0.100000,-0.100000)"
fill="#000000" stroke="none">
<path d="M1930 7479 l0 -181 99 4 c110 3 139 16 175 77 29 50 27 154 -4 208
-31 56 -75 73 -185 73 l-85 0 0 -181z m216 108 c44 -51 44 -163 0 -214 -21
-24 -32 -28 -95 -31 l-71 -4 0 142 0 142 71 -4 c63 -3 74 -7 95 -31z"/>
<path d="M8600 7638 c-60 -31 -83 -74 -84 -152 -1 -71 23 -128 67 -160 22 -16
44 -21 92 -21 73 0 109 20 137 76 17 32 17 34 0 41 -27 11 -29 10 -42 -22 -36
-87 -174 -74 -199 17 -32 115 16 203 110 203 39 0 89 -31 89 -56 0 -16 18 -18
40 -4 13 8 12 13 -6 37 -46 63 -128 79 -204 41z"/>
<path d="M1537 4048 c-422 -1690 -767 -3076 -767 -3080 0 -5 1362 -8 3028 -8
l3027 0 768 3073 c422 1689 767 3075 767 3080 0 4 -1362 7 -3028 7 l-3027 0
-768 -3072z m5243 -8 l0 -3050 -2985 0 c-1988 0 -2985 3 -2985 10 0 8 1475
5919 1511 6053 l10 37 2224 0 2225 0 0 -3050z m1540 3038 c0 -7 -340 -1367
-754 -3023 l-754 -3010 -1 3023 -1 3022 755 0 c597 0 755 -3 755 -12z"/>
<path d="M6342 4168 c-7 -7 -12 -21 -12 -31 0 -10 -9 -21 -20 -24 -22 -6 -28
-33 -6 -33 11 0 11 -10 -1 -61 -8 -34 -13 -76 -11 -93 3 -27 7 -31 32 -31 16
0 31 6 34 13 2 7 -5 12 -17 12 -25 0 -25 -1 -5 89 13 55 20 71 34 71 10 0 20
7 24 15 4 10 -1 15 -15 15 -17 0 -19 4 -13 35 6 36 -3 44 -24 23z"/>
<path d="M3887 778 c-26 -26 -29 -33 -15 -36 9 -2 26 6 37 17 34 34 91 25 91
-15 0 -21 -6 -24 -61 -30 -71 -8 -99 -29 -99 -73 0 -50 61 -77 113 -50 16 9
22 9 25 0 2 -6 12 -11 21 -11 15 0 19 12 25 68 3 37 9 77 12 89 9 33 -35 73
-81 73 -28 0 -44 -8 -68 -32z m103 -103 c0 -25 -46 -65 -74 -65 -38 0 -52 34
-26 60 25 25 100 29 100 5z"/>
<path d="M401 652 c-24 -64 -54 -145 -67 -179 l-24 -63 24 0 c20 0 28 9 44 53
l20 52 75 3 75 3 20 -53 c16 -44 24 -54 47 -56 23 -3 27 -1 21 15 -4 10 -36
91 -73 181 -61 151 -67 162 -92 162 -24 0 -29 -9 -70 -118z m123 -69 c7 -22 5
-23 -52 -23 l-60 0 23 63 c13 34 26 71 30 82 5 16 11 8 29 -40 13 -33 26 -70
30 -82z"/>
<path d="M6980 590 l0 -182 106 4 c105 3 106 3 135 36 16 18 29 44 29 58 0 32
-25 80 -45 88 -15 5 -14 9 4 32 28 35 26 77 -3 111 -23 27 -29 28 -125 31
l-101 4 0 -182z m189 125 c21 -23 22 -54 2 -74 -17 -17 -34 -21 -81 -21 l-60
0 0 56 0 56 65 -4 c36 -2 69 -8 74 -13z m17 -160 c8 -10 14 -28 14 -40 0 -44
-23 -59 -99 -63 l-71 -4 0 67 0 67 71 -4 c55 -3 74 -8 85 -23z"/>
</g>
</svg>
