<?xml version="1.0" standalone="no"?>
<!DOCTYPE svg PUBLIC "-//W3C//DTD SVG 20010904//EN"
 "http://www.w3.org/TR/2001/REC-SVG-20010904/DTD/svg10.dtd">
<svg version="1.0" xmlns="http://www.w3.org/2000/svg"
 width="919.000000pt" height="783.000000pt" viewBox="0 0 919.000000 783.000000"
 preserveAspectRatio="xMidYMid meet">

<g transform="translate(0.000000,783.000000) scale(0.100000,-0.100000)"
fill="#000000" stroke="none">
<path d="M4500 7373 c-34 -93 -65 -174 -68 -180 -2 -8 5 -13 21 -13 23 0 28 7
43 55 l18 55 77 0 76 0 19 -52 c16 -45 23 -53 48 -56 15 -2 27 1 25 6 -2 5
-35 86 -73 180 -66 161 -72 172 -96 172 -25 0 -30 -10 -90 -167z m118 47 c11
-30 23 -63 27 -72 6 -16 0 -18 -53 -18 l-60 0 26 79 c15 44 30 76 33 73 4 -4
16 -32 27 -62z"/>
<path d="M2722 3928 l-1901 -3083 1899 -3 c1044 -1 2756 -1 3804 0 l1905 3
-1898 3077 c-1044 1693 -1900 3080 -1903 3083 -3 3 -860 -1382 -1906 -3077z
m1888 -33 l0 -3025 -1869 0 -1869 0 1865 3025 c1026 1664 1867 3025 1869 3025
2 0 4 -1361 4 -3025z m1908 -8 l1860 -3017 -1869 0 -1869 0 0 3027 c0 1749 4
3023 9 3018 5 -6 846 -1368 1869 -3028z"/>
<path d="M4948 3726 c-9 -7 -20 -24 -23 -39 -4 -15 -13 -27 -20 -27 -7 0 -15
-7 -19 -15 -3 -9 0 -15 10 -15 12 0 15 -6 11 -22 -27 -113 -31 -149 -17 -158
24 -15 60 -12 60 5 0 8 -7 15 -15 15 -18 0 -18 32 -2 105 10 40 17 51 35 53
27 4 30 32 3 32 -17 0 -18 4 -10 37 9 44 9 45 -13 29z"/>
<path d="M420 1038 c-63 -32 -93 -91 -87 -170 9 -103 59 -159 149 -165 66 -5
115 19 143 71 17 32 18 38 5 46 -23 15 -30 12 -40 -14 -21 -56 -93 -82 -150
-53 -78 39 -78 214 0 255 36 19 110 9 131 -17 10 -12 19 -26 21 -32 2 -6 12
-7 25 -2 l23 8 -20 33 c-38 62 -123 79 -200 40z"/>
<path d="M8590 850 l0 -182 106 4 c105 3 106 3 135 36 16 18 29 44 29 58 0 32
-25 80 -45 88 -15 5 -14 9 4 32 28 35 26 77 -3 111 -23 27 -29 28 -125 31
l-101 4 0 -182z m189 125 c21 -23 22 -54 2 -74 -17 -17 -34 -21 -81 -21 l-60
0 0 56 0 56 65 -4 c36 -2 69 -8 74 -13z m17 -160 c8 -10 14 -28 14 -40 0 -44
-23 -59 -99 -63 l-71 -4 0 67 0 67 71 -4 c55 -3 74 -8 85 -23z"/>
<path d="M4605 568 c-21 -12 -44 -38 -45 -50 0 -17 36 -7 48 13 16 25 69 23
86 -3 15 -25 -1 -37 -59 -44 -71 -9 -95 -27 -95 -69 0 -54 59 -82 113 -54 16
9 22 9 25 0 2 -6 12 -11 21 -11 13 0 18 8 18 28 0 15 3 59 8 98 7 68 6 72 -16
88 -27 19 -75 21 -104 4z m70 -147 c-23 -46 -86 -55 -102 -15 -3 8 1 23 10 32
17 16 100 33 105 20 2 -3 -4 -20 -13 -37z"/>
</g>
</svg>
